<?xml version="1.0" encoding="utf-8"?>
<!-- Generator: Adobe Illustrator 22.0.1, SVG Export Plug-In . SVG Version: 6.00 Build 0)  -->
<svg version="1.1" id="Layer_1" xmlns="http://www.w3.org/2000/svg" xmlns:xlink="http://www.w3.org/1999/xlink" x="0px" y="0px"
	 viewBox="0 0 864 864" style="enable-background:new 0 0 864 864;" xml:space="preserve">
<style type="text/css">
	.st0{fill:#020202;}
</style>
<g>
	<path class="st0" d="M528.6,213c1.2,1,1.3,1.7,0.4,3.2c-2.7,4.7-5.3,9.5-7.8,14.4c-0.9,1.7-1.7,1.8-3.1,1.3
		c-2.4-0.9-4.8-1.5-7.5-2.3c0.7,1.8,1.8,2.4,2.7,3.3c3.9,3.7,8.1,7.2,11.8,11.3c8.8,10.1,14.7,22.7,20.1,35.6
		c2.9,7,6.7,13.2,10.8,19.2c2.4,3.5,5.5,5.7,10.4,5c-3-4.8-5.7-9-8.3-13.3c-0.5-0.8-1.5-1.5-1-2.8c0.4-1.1,1.5-0.7,2.3-0.8
		c5.4-0.2,10.5-1.9,15.5-4.2c8.2-5.3,13-13.6,15.3-24.3c4.1,2,7.8,4.7,12.2,5.1c4.6,0.4,8.5-1.9,11.8-5.8c0.3,0.3,0.6,0.4,0.7,0.5
		c2.5,6.9,3.3,9.3,13.9,7.3c1.7-0.3,4-1.6,5.1-0.7c1.3,1.1-0.2,3.8-0.3,5.8c-1.1,11.6,1.9,20.8,9.8,27.4c-3.9,3-4,3-5.5-1.1
		c-2.1-5.7-5.5-9.9-10.4-12c-3.1-1.4-5.7-3.5-7.8-6.6c-4.9-7.2-13.8-8.9-19.9-1.3c-1.1,1.4-2.5,1.9-4,1.4c-7.2-2.1-13.9-0.1-20.3,5
		c-0.4,0.5-0.9,1.1-1.3,1.6c-5.2,5.6-7.9,14.3-3,21.9c0.8,1.2,0.4,1.9-0.3,2.8c-0.7,0.9-1.3,1.9-2.1,3.1c2.4,0.2,4.2-1,6.1-1.7
		c7.2-2.7,13.6-2.8,19.2,3.9c3,3.7,7.2,4.9,11.7,3.7c2-0.5,4-1.5,6-2.4c4.1-1.8,7.9-2.3,11.3,1.5c0.6,0.6,1.4,1.1,2.2,1.1
		c5,0.2,9.9,1.1,14.2,4.4c0.5-2.4-0.2-4-0.8-5.6c-1.8-4.6-1.3-6.2,2.8-8.3c11-5.8,20.8-13.7,29.2-24.2c3.1-3.9,6.7-6.7,10.8-8.5
		c10.6-4.6,21.3-8.5,32.4-10.9c1.7-0.4,3.6-0.2,5.3-1.8c-6.9-3.1-13.9-3.3-21-1.8c-2.8,0.6-3.4-0.3-3-3.4c0.8-6.9-0.5-13.2-3.2-19.1
		c-1.5-3.3-3.8-5.8-5.7-9.8c3.4,1,6.2,1.8,9.1,2.7c-0.6-2.7-2.6-4.2-2.8-6.7c5.6-1.5,9.7,0.7,12.6,6c0.9,1.6,1.5,3.4,2.4,5.1
		c0.5,0.9,0.3,3,1.8,2.3c1.2-0.6,0.4-2.2,0.3-3.4c-0.3-2.5-0.5-5.1-1.1-7.6c-0.6-2.8,0.4-3.1,2.4-2.9c5.9,0.5,10.6,3.7,15.1,8.4
		c-0.4-9.4-5.6-14.1-11.7-18.8c4.3-0.9,7.6,0.5,11.2,0.2c-0.8-2-2.1-3-3.4-3.9c-6.8-4.7-14.2-5.8-22-3.1c-8.1,2.8-16.1,5.6-24.2,8.4
		c-0.3,0.5-0.8,0.6-1,0.2c-0.3-0.6,0.4-0.6,0.6-0.9c5.2-5,10.4-10,15.2-14.5c0.4,0.1-0.1-0.1-0.5-0.1c-7.7,1-14.9,4.1-21.4,9.7
		c-6.6,5.6-11.7,13-16.9,20.3c-7.1,10.1-15.7,17.9-25,24.7c-2,1.5-4,1.7-5.1-0.8c-2.9-6.7-4.8-13.8-3-21.6c0.6-2.5,0.9-4.8,0.6-7.3
		c-0.6-5.2,0.2-10,2.3-14.8c3.8-8.7,8.9-16,15.6-21.9c2.9-2.6,5.9-5,9.6-8.1c-15.7,3-26.4,11.9-31.7,30c-5.2-7.3-10-14.2-15-20.9
		c-0.8-1.1-1.5-3.9-2.9-2.8c-1.6,1.3,0.1,3.3,0.8,4.7c3.1,6,6.3,11.9,9.5,17.8c6.2,11.5,8.5,23.6,2.1,37c-0.5,1-1.1,7.3-3.4,10.9
		c-2.2-3.5-4.4-6.8-6.5-10.2c-7.1-11.3-14-22.8-21.3-33.9c-4.9-7.5-11.7-12.2-18-12.9c2.1,4.3,4.2,8.5,6.4,12.9
		c-0.6,0.1-0.9,0.2-1,0.1c-0.8-0.6-1.5-1.2-2.2-1.8c-9.5-7.9-17.7-17.5-24.9-28.3c-0.6-0.8-1-2.7-2.2-1.9c-1,0.7-0.2,2.3-0.1,3.5
		c0.3,4.1,1.5,8,0.7,12.6c-6-9.3-11.9-18.6-17.9-27.8c-0.3,0.1-0.5,0.3-0.8,0.4c0.4,4.3,0.9,8.6,1.4,13.7
		c-4.1-4.7-7.7-8.9-11.3-13.1c-0.5-0.5-0.9-1.6-1.8-0.9c-0.9,0.7-0.2,1.5,0.1,2.3c2.5,6.3,5,12.7,7.6,19
		C517.9,200.2,522,207.8,528.6,213z M628.3,312.6c-0.9,0.3-1.8,0.8-2.7,0.8c-1.2-0.1-3,1.8-3.5-0.3c-0.4-1.7,1.6-1.8,2.6-2.7
		c0.2-0.2,0.3-0.3,0.8-0.9c-4.3-2.7-8.6-3.1-12.8-0.2c-6.7,4.6-12.6,4.2-18.1-1.8c-3.3-3.7-7.5-4.4-12-3.2c-2.4,0.7-4.7,1.3-6.5-1.3
		c-2.8-4-2.3-7.3,1.8-9.8c3.5-2.3,7.1-4.4,10.7-6.6c1.7-1,3.7-1.4,5.1-0.1c2.3,2.1,3.7,0.1,5.1-1.5c2.9-3.3,6-5.6,10.1-4.9
		c2.6,0.4,4.6,1.9,6.2,4.1c1.7,2.2,3.2,4.6,4.7,7c1,1.6,1.7,3.4,3.9,1.9c0.3-0.2,0.9-0.1,1.1,0.1c3.3,3.5,7.2,6.3,7.6,12.4
		C632.6,309.9,631.9,311.3,628.3,312.6z M663.6,248.8c7.8-2.8,6.1,10.7-1.4,12.7C652.6,264.1,654.7,252,663.6,248.8z M641.1,266.4
		c0.5-5.6,1.8-6.7,8.2-8.2c-0.1,1.7-0.2,3.4-0.2,5.2c0.2,9.5,6.8,14,14,9.5c10.6-6.6,15-21.3,10-33.7c0,0,0,0,0,0
		c5-5.5,7.6-5.3,11.4,0.6c4.1,6.5,5.8,13.5,2.6,21.6c-1.1,2.9-2.9,5.2-5.4,6.2c-8.4,3.2-14.5,10.2-20.7,17.2c-3.6,4-7.4,7.2-12.6,5
		c-2.5-1.1-4-3.3-5-5.9C641.2,278.4,640.6,272.5,641.1,266.4z M564.7,235.5c11.7,6.7,1.3,13.1-0.4,12.6
		C548.9,243.7,558.9,232.2,564.7,235.5z M530.2,231.7c0.7-2.9,1.8-5.6,3.6-7.9c2.9-3.4,5.5-4.1,8.9-2c3.7,2.3,7.8,4,11.2,6.8
		c-10,13.2-3.8,24.7,3.9,29.9c4.6,3.1,9.5,1.9,13.3-2.9c3-3.7,5-8.1,6.3-13c5.6,2.8,7.3,7.9,5.1,15.7c-4,14-16.2,21.9-27.7,18.2
		c-1.9-0.6-2.9-2.1-3.8-3.8c-3.8-7.5-6.9-15.6-10.9-23c-1.9-3.4-4.2-6.1-7-8.3C529.9,238.6,529.1,236.4,530.2,231.7z"/>
	<path class="st0" d="M793,481.2c-7.4-8.3-14.6-16.9-22.3-25c-8.5-8.9-15.7-18.6-20.1-30.1c-3.6-9.2-7.3-18.1-19.9-19.7
		c2.5-3.6,4.1-6.4,6.3-8.8c13.8-15,25.7-31.5,36.1-49c12.6-21.2,22.4-43.6,24.1-68.6c1-14.3,0.3-28.6,0.9-42.9
		c0.2-3.9,1.2-8.6,3.5-11.5c9.5-11.9,11.7-25.1,8.7-39.5c-2.3-11.3-4.8-13.7-16-14.9c-5.5-0.6-9.7-3.1-12.3-8.2
		c-2.9-5.8-6.2-11.4-9-17.2c-11.4-24-27.4-44.4-48.4-60.9c-22.1-17.4-47.7-26.9-74.8-32.6c-11.8-2.5-16.4-7.2-18.3-19.1
		c-0.3-2.1-0.6-4.4-1.6-6.2c-1.6-2.9-4-4.3-6.4-0.5c-2.5,3.9-5.7,7.6-7.2,11.9c-2.8,8-8.3,11.1-16.3,10.8c-0.3,0-0.7,0-1,0.1
		c-20,2.3-39.2,7-55.1,20c-16.9,13.8-33.3,28.1-49.3,43c-21.2,19.7-35.3,43.7-39.9,72.6c-4.2,26.8-8,53.6-12.1,80.4
		c-1.2,7.7-0.4,14.8,4,21.5c2.1,3.2,3.9,6.6,5.2,10.1c4.8,13.1,9.3,26.3,14,39.7c1.6-0.5,2.9-0.9,5-1.5c2.3,6.1,4.5,12,6.7,17.9
		c-0.5,0.3-1,0.6-1.5,0.9c-1.5-1.2-3.4-2.2-4.4-3.8c-4.7-7.8-9.9-15.4-13.5-23.7c-4.3-10.2-7.1-21.1-10.7-31.7c-0.7-1.9-2-3.7-3-5.5
		c-0.6,0.2-1.1,0.4-1.7,0.7c0.1,1.5,0.1,3.1,0.5,4.6c1.7,8.1,3.6,16.2,5.3,24.4c1.3,6.3,0.3,7.6-5.9,7.6c-3.8,0-7.7,0-11.5-0.5
		c-9.4-1.2-11.2-4.5-8.6-13.5c3-10.4,6.9-20.7,8.2-31.3c4.3-33.7,1.6-67.2-5-100.3c-2.3-11.6-4.7-17.8-12.3-32.9
		c-4.7-9.3-11-17.8-16.4-26.8c-5.3-8.8-9.8-18.3-16-26.5C339,39,234.5,41.5,183.8,57.1C162,63.8,143.7,79,127.6,95.4
		c-9.3,9.4-17.4,20.2-24.6,31.3c-13.1,20.2-25.4,41-37.4,61.8c-6.9,12-11.5,25-13.5,38.8c0,6.3,0,12.7,0,19c0.3,1.3,0.7,2.5,0.8,3.8
		c1.5,16.5,6.1,32,13.5,46.7c3,6,7.7,10.3,14,12.9c8.6,3.5,8.3,3.6,7.4,12.8c-0.8,7.1-0.8,14.3-0.6,21.4c0.2,5.5,3.2,6.9,8.1,4.4
		c2.2-1.1,4.3-2.5,6.5-3.8c3.1-1.7,5.1-1.3,5.4,2.6c0.2,2.8,0.3,5.7,0.9,8.4c1,4.5,2.5,8.9,3.9,14c2.8-1.5,4.3-2.1,5.6-3
		c4.1-3.1,6.9-2.1,9.1,2.3c2.5,4.9,5.5,9.6,7.6,14.6c0.9,2.1,0.9,5.4-0.2,7.3c-3.8,7-8.2,13.7-12.5,20.4c-5.4,8.5-9.3,17.5-9.9,27.9
		c-0.8,13.3-2.4,26.5-3.5,39.8c-1.5,17.4,1.3,33.8,9.9,49.2c3.3,5.8,6.1,11.9,9.6,17.5c3.4,5.5,3.8,11.1,3.2,17.3
		c-2.1,20.5-4.5,41.1-5.6,61.7c-1.3,23.8-0.7,47.7-2.1,71.4c-1,16.9,0.5,32.8,10.5,47.1c0.8,1.1,1,2.5,1.8,3.6
		c10.5,14.9,13.3,31.6,11.8,49.4c-0.5,5.8,1.9,10.8,6.2,14.6c23.8,21,51.6,30.5,83.1,28.7c7.8-0.4,14.9-3.6,18.3-11.2
		c5.9-13.5,7.2-27.5-1.3-40.2c-6.7-10-7-20.5-3.4-30.5c7.5-20.9,22.7-34.8,43.7-42.2c4.7-1.7,8.4-0.4,11.6,3.3
		c4.1,4.8,7.9,10,12.6,14.2c8.3,7.6,12.2,15.8,10.4,27.6c-1.9,12.9,1.5,16.5,13.9,21.1c2,0.7,4.1,1.6,6.2,1.9
		c16.6,2.4,33.2,5.2,49.8,6.9c12.9,1.3,26,0.8,38.9,1.9c20.3,1.7,40.5,4.5,60.8,2.1c13.4-1.6,26.7-3.4,39.9-6.2
		c8.3-1.7,11-6.3,11.2-14.9c0.1-5.8,1.9-10.7,6.1-14.8c6-5.9,7.3-13.2,5.4-21.2c-0.5-2.3-1.3-4.5-1.8-6.7
		c-2.3-10.2,5.9-20.8,16.3-21.2c11.8-0.5,23.3,1.3,34.1,6.2c2.2,1,4.8,2.2,6.2,4c6.8,8.8,12.2,18.2,10.9,30.2
		c-0.4,3.8,0.8,7.8,1.9,11.6c1.6,5.6,4.2,10.8,5.7,16.4c1.9,7,5.9,11.9,12.6,14.4c12.1,4.6,24.8,7.1,37.7,6
		c21.2-1.8,41.7-6.7,61.4-14.8c6.7-2.7,10.8-7.5,12.9-14.3c0.9-3,1.5-6.3,3.1-8.9c5.3-8.9,6.9-18.7,6.7-28.8
		c-0.1-3.6-1.3-7.6-3.3-10.6c-3.5-5.1-5.1-10.3-4.9-16.4c0.5-10.5,0.6-21,1.2-31.5c0.7-12.8-0.9-25-5.3-37.2
		c-4.4-12.3-7-25.3-10.2-38c-0.6-2.5-1.2-6.2,2.4-6.5c7.8-0.7,12.5-4.7,15.2-11.7c0.4-1,25.6-29.5,36.8-43.4c2.3-2.8,2.7-25,2-32
		C801.1,495.6,798.8,487.7,793,481.2z M426.6,225.8c0.4,16-0.1,32-0.6,48c-1.1,33.3-16.5,58.2-44.6,75.7
		c-25.9,16.1-54.3,23.9-84.3,26.9c-17.5,1.7-34.9,1.4-52.2-2.2c-14.2-3-26.2-9.6-35.5-20.5c0.1-0.8,0.3-1.5,0.5-2.3
		c0.6-2.4,1.8-3.4,5-2.3c7.5,2.5,7.6,2.4,11.4,11.7c0.3-1.4,0.7-2.7,0.9-4.1c0.5-2.2,1.5-3.6,4.5-2.6c0.8,0.3,1.8,0.5,2.7,0.6
		c4.8,0.6,8.2,2.4,9.2,6.7c0.3,1.2,1.2,2.3,2.2,4c0.4-1,0.6-1.5,0.7-2.1c1.3-5.7,1.2-5.4,8-5.1c6,0.3,10.4,1.6,11.9,6.9
		c0.5,1.8,2.2,3.4,4,4.9c-0.3-2.3-0.5-4.6-0.8-6.8c-0.4-2.8,1.2-3.8,4.4-3.7c1.3,0.1,2.6,0,3.9-0.1c3-0.2,5.1,0.6,5.9,3.2
		c0.3,1,1.1,1.8,2.5,2.5c0.4-1.9,0.7-3.8,1-5.6c6.1-1,12-1.9,18.2-2.9c1.3,3.2,2.5,6.1,3.7,9.1c0.2,0,0.4,0,0.6-0.1
		c0.5-2.7,0.8-5.3,1.5-8c0.3-1,1.1-2.5,2.1-2.8c5-1.7,10.2-3,15.6-4.6c0.7,1.9,1.3,3.4,2.1,5.6c1.2-1.7,2.5-2.9,2.8-4.1
		c0.6-3,3-4.2,5.9-5.3c3.3-1.2,6.5-2.5,10.2-3.9c0.3,2.8,0.6,5.2,0.9,7.5c0.4,0.1,0.9,0.2,1.3,0.3c1.2-2.7,2.2-5.4,3.7-7.9
		c0.9-1.6,2.1-3.3,3.8-4.2c4.6-2.6,9.4-4.9,14.7-7.5c0.1,2.2,0.1,3.8,0.1,5.4c0.4,0.1,0.8,0.3,1.2,0.5c1.3-2.1,3.4-4.1,3.9-6.2
		c0.8-3.7,3.2-6.2,6.3-8.6c3-2.4,5.9-4.8,9.1-7.5c0.3,1.7,0.6,3.2,0.9,4.6c0.4,0.1,0.7,0.1,1.1,0.2c0.6-1.9,1.7-3.8,1.9-5.8
		c0.6-5.3,5-9,8.4-13.1c1.1-1.3,2.4-1.1,3.3,0.4c0.3,0.6,0.9,1.1,2.1,1.5c0-0.8,0.2-1.7-0.1-2.4c-2.1-3.4-0.5-6.2,1.4-9.4
		c5.7-9-3.4-6.3-4.1-4.9c-0.6-1-0.9-1.6-1.8-3.2c-2.3,7-3.5,13.6-9.7,18.8c-0.7-3.8-1.4-7.2-2.1-10.7c-0.4,0-0.7,0-1.1,0.1
		c0,2.6,0.2,5.2-0.1,7.7c-0.3,2.7-0.5,5.6-1.7,8c-1.2,2.4-3.6,4.3-5.7,6.4c-2.1,2.1-4.5,4-6.8,5.9c-0.4-0.1-0.8-0.1-1.2-0.1
		c-1-5-1.9-9.9-2.8-14.8c-0.2,0-0.4,0.1-0.6,0.2c-0.4,6,0.5,12.3-1.7,17.8c-2.5,5.8-10.4,8.1-17.1,12.1c-1.2-6.1-2.2-11.4-3.2-16.7
		c-0.4,0-0.8,0-1.2,0.1c0.1,1,0.1,1.9,0.1,2.9c0,2,0.2,4,0.1,6c-0.8,10.8-2.4,12.4-16.4,16.4c-0.9-6.4-1.7-12.7-2.6-19
		c-0.3,0-0.6,0.1-0.8,0.1c-0.3,4.7-0.7,9.4-0.9,14.2c-0.2,5-2.5,8.4-8.9,9.5c-3.7,0.6-7.3,1.9-11.4,3c-0.5-9.3-1.1-18-5.2-26.3
		c0,5.5,0.5,11,0.1,16.5c-0.8,12.8-0.7,11.4-14.2,13.5c-3.7,0.6-5.6-0.1-6.5-3.3c-1.3-5.1-2.9-10.2-4.4-15.3
		c-0.3-1.1-0.7-2.2-1.1-3.3c-0.4,0.1-0.8,0.2-1.2,0.2c0.9,7.4,1.8,14.8,2.8,22.4c-1.2,0.1-2,0.1-2.9,0.2c-10.6,0.6-10.8,0.6-12.3-8
		c-1-5.8-1.1-11.8-1.5-17.7c-0.1-0.6-0.1-1.2-0.2-1.8c-0.4,0-0.9,0-1.3-0.1c-0.4,4.5-1.2,9-1.2,13.4c0,4.5,0.9,8.9,1.5,14.4
		c-5.4-1-10.5-1.8-15.3-2.9c-0.8-0.2-1.5-1.7-1.7-2.7c-0.7-4-1.1-8-2.3-12.2c-0.8,4.6-1.5,9.2-2.3,13.7c-0.5,0.1-0.6,0.2-0.7,0.1
		c-15.7-2-14.6-2.5-14.5-13.4c0-1.9,0.2-3.8,0.3-5.8c-0.4,0-0.7-0.1-1.1-0.1c-1.1,4.7-2.1,9.4-3.3,14.8c-3.6-1.2-7.4-2.3-10.8-3.8
		c-1-0.4-1.3-2.5-1.3-3.8c0.2-2.9,0.8-5.9,1.2-8.8c-0.4-0.1-0.7-0.1-1-0.2c-1.3,3.5-2.7,7-4,10.4c-9.4-1.2-10.3-6.5-7.9-13.3
		c-0.5,0-1,0-1.5,0c-1.2,2.3-2.4,4.6-3.6,6.9c-0.3-0.1-0.6-0.2-0.9-0.3c-1.7-2.3-3.3-4.3-4.1-5.4c-0.1-1.1-0.2-2.6-0.4-4.4
		c-0.6,0.6-1.1,1.1-1.5,1.6c-6.4-10-13-20.1-17.5-30.9c-6.6-15.9-14.5-32.5-16.9-57c-2.1-20.7-3-42,0.6-62.5
		c5-29.2,21.8-49.7,38.5-65c13.2-12.1,29.5-17.9,46.5-21.7c29.8-6.8,59.9-5.9,89.7,0.1c20.1,4,36,16,50.8,29.5
		C411,146.7,425.5,183.4,426.6,225.8z M381.8,537.7c0,1.7-0.8,3.4-1.3,5.1c-0.4,0-0.9,0-1.3,0.1c-0.4-1.9-0.9-3.8-1-5.7
		c-1-18.4-1.8-36.9-3-55.3c-1.7-27.1-5.5-53.9-11.5-80.4c-0.6-2.7-0.9-5.5-1.3-8.7c4.8-0.5,6,2.3,6.6,5.3c2.4,13.1,5,26.1,6.8,39.2
		c2.2,16,4.5,32,5.4,48.1C382.2,502.7,381.7,520.2,381.8,537.7z M386.5,578.3c0.4,8.6,1.1,17.7-4.7,25.4c-0.4,0.5-0.9,0.8-1.9,1.7
		c-3.9-7.3-7.8-14.2-11.2-21.4c-0.7-1.5,0.1-4.3,1.2-5.7c1.3-1.8,3.6-2.9,5.5-4.1C380.4,571.1,386.2,572.9,386.5,578.3z M207,350.6
		c-0.2-0.2-0.4-0.5-0.5-0.7c-0.9-1.2-2.8-3.5-3-3.8c-0.1,0-0.8-0.9-1.9-2.2c2.6,0.9,5.1,3,5.2,4.5
		C206.8,349.1,206.9,349.8,207,350.6z M248.1,798.9c-1,5.7-1.3,11.4-2,17.5c5.7-0.1,5.4-4.7,7.5-7.6c2,4.5,1.1,8.1-2.4,10.7
		c-2.5,1.9-5.3,3.5-8.2,4.7c-7.3,3-14.7,5.6-22.7,8.7c-1.6-3.4-5-4.8-9.2-6.2c-18.8-6.3-36.9-14.5-52.7-26.9c-4-3.2-5.8-7.1-5-12.2
		c0.6-3.9,1.1-7.9,2.4-11.9c3.8,7.2,2.5,16.4,10.7,22.9c0-3.4,0.3-5.5-0.1-7.5c-0.8-4.6-2-9.1-2.9-13.7c-1.7-8.2,1.7-14.7,7-20.4
		c1.1-1.1,3.9-0.5,5.9-0.8c2.8-0.3,6.2,0.2,8.2-1.3c5.4-3.8,11.1-4.6,17.1-3.3c12,2.6,24,5.4,35.9,8.7c2.1,0.6,4.6,3.5,5,5.7
		c0.6,3.5-3.1,3.1-5.4,3.4c-6,0.6-12,0.9-17.9,1.7c-1.7,0.3-3.2,2.1-4.8,3.3c1.7,1,3.4,2.6,5.2,2.8c6.4,0.6,12.8,0.7,19.8,1
		c-5.7,6.1-4.8,8.8,2.8,10.9C249.6,791.5,249.4,791.4,248.1,798.9z M327.5,733.7c-0.8-0.7-0.1-3.6,0.5-5.3c0.7-2.1,2.1-3.9,3.9-7.2
		c-3.5,0.9-5.5,1.4-7.5,2c-1.4,0.4-2.8,1-4.3,1.1c-4,0.2-5.7-2.6-6.6-5.7c-1-3.6,2.3-3.8,4.6-4.5c2.6-0.8,5.4-1.3,8.1-1.9
		c0.2-0.5,0.4-1.1,0.6-1.6c-2.2-1.2-4.4-3.3-6.7-3.5c-22.5-1.6-42.7,3.4-58.3,21c-3.3,3.8-6.8,7.5-9.3,11.7
		c-6.1,10.2-15.1,12-25.8,9.9c-10.4-2.1-21-3.7-31.5-5.6c-9.5-1.8-18.5,0.1-27.3,3.7c-3.2,1.3-6.4,2.8-9.6,4.1
		c-9.5,3.8-16.4-1.1-15.9-11.3c0.1-2.5,0.3-4.9,0.5-7.4c-0.4-0.4-0.7-0.7-0.9-0.8c-8.6-2.4-10.1-3.6-10.4-14.8
		c-0.7-26.5-1.5-53-0.8-79.5c0.8-28.1,3.4-56.2,4.8-84.3c0.2-3.6-1.2-7.6-2.7-11c-5.1-11.4-10.8-22.5-15.9-33.9
		c-1.5-3.4-2.7-7.3-2.6-11c0.9-20.5,1.8-41,3.8-61.3c0.7-7,3.5-14.3,7.3-20.3c7.8-12.4,16.8-24,25.4-35.9c3-4.1,7-6.6,12.3-6.5
		c1.3,0,2.6-0.4,3.9-0.6c0-0.6-0.1-1.1-0.1-1.7c-1.5,0-3,0-4.4,0c-8.5,0.3-17,0.8-25.5,0.9c-1.1,0-2.7-1.4-3.3-2.5
		c-0.9-1.7-1-3.8-1.6-5.7c-2.4-7.5-6.6-9.2-13.8-5.7c-0.7,0.4-1.4,0.7-2.9,1.4c-2.9-10.8,2.6-20.8,2.1-32.3
		c-8.4,4.8-16.1,9.3-24.3,14c-1.4-11.3,0.1-21.7,3.2-31.9c1.3-4.3,3-8.5,4.7-12.6c3.5-8.6,4.2-17.5,1.5-26.4
		c-0.7-2.4-2.6-4.5-4.7-6.4c-3.9,8.5,4.2,17-1.5,25.4c-2.8-3.1-5.6-6.2-8.4-9.2c-0.6,0.2-1.2,0.5-1.8,0.7c0.6,3,1,6.1,1.8,9
		c0.9,3,2.8,5.9-0.9,8.4c-3.2,2.2-8.7,1.8-11.5-1.1c-7.7-7.8-11.3-17.5-13.2-28c-4.1-22.6-5.9-45.1,3.6-66.8
		c5.1-11.7,10.5-23.4,16.9-34.5c9.8-16.8,20.2-33.3,30.9-49.6c9.9-15,24.3-27,40.5-39c11.2-8.3,20-16.2,33.7-18.9
		c45-8.9,117-5,125.9-1.5c4.5,1.8,45.4,14,69.8,48.9c0.6,0.9,0.8,2,1.7,4.6c-2.6-1.5-4.3-2.1-5.5-3.2C357.9,88.9,331,79,300.7,77.3
		c-26.2-1.5-52.4-1.5-76.9,8.2c-39.2,15.5-65.8,43.2-73.2,85.9c-2.5,14.3-3.1,29.5-3.3,44.1c-0.1,11.8,1.6,23.5,2.7,35.2
		c0.6,6.5,3.7,12.7,5.6,19c7.5,24.3,19.2,46.7,32.4,68.4c2.5,4.2,14.5,17.3,20.8,22.9c12.8,11.3,27,20.5,43.4,24.9
		c20,5.3,40.4,6.9,60.5-0.2c17.7-6.3,35.4-12.7,53.1-19c2.1-0.8,4.4-1,8-1.8c-1.4,2.5-2.1,3.9-2.9,5.2
		c-7.4,11.9-14.9,23.7-22.1,35.7c-7.1,11.9-16.4,20.8-30.1,24.6c-2.8,0.8-5.3,2.4-8.8,4c5.8,3.9,10.8,2.7,15.7,1.3
		c10-2.9,16.9-9.8,22.4-18.2c3-4.6,5.8-9.3,9.3-15c1.4,3.7,2.7,6.5,3.5,9.4c5.8,20.4,8.4,41.4,10,62.5c0.7,8.8,1.3,17.6,2.2,26.4
		c2.4,22-1.2,43.2-7.9,64c-4.1,12.6-3.9,24.1,4.9,34.8c2.7,3.3,4.4,7.5,6.9,11c3,4.3,4.9,4.3,7.9,0c7.3-10.2,8.9-21.5,5.7-33.3
		c-2.1-7.6-1.5-15-1-22.7c0.5-8.2-0.8-16.5-1.5-24.8c-1.6-18.9-3.3-37.8-4.9-56.7c-0.9-11.3-1.7-22.6-2.5-33.9c-0.1-2.1,0-4.2,0-6.9
		c4.5,0.6,8.4,0.6,11.9,1.8c1.8,0.6,3.8,3.1,4.3,5c0.9,3.8,2.5,6.3,5.7,8.7c3.4,2.6,5.9,6.7,8,10.6c3.7,6.7,9.2,10.2,16.7,11
		c10.6,1,18.9,6,24.7,15.7c-5.6,6.3-11.2,12.9-17.3,19c-1.7,1.7-4.7,2.3-7.3,2.9c-11.4,2.8-14.4,7-12,18.7
		c5.4,25.9,11,51.7,16.7,77.5c5.1,23.1,3.3,45.5-4.5,67.8c-4.1,11.7-7.4,23.8-10.7,35.8c-2.6,9.6-6.1,13.3-15.8,14.7
		c-2.8,0.4-5.7,0.6-8.5,0.4c-17-1.1-33.1,1.9-48.6,9.1c-3.5,1.6-7,3.2-10.7,4C331.7,735.7,329,734.9,327.5,733.7z M468.2,519.2
		c5.3,13.2,6.3,26.8,2.7,40.6c-0.4,1.4-0.8,2.9-1.7,4.1c-7.5,10.4-15,20.7-22.9,30.9c-1.7,2.2-4.7,3.4-7.1,5
		c-1.4-2.5-3.5-4.9-4.1-7.5c-4.7-20.2-9.1-40.5-13.5-60.8c-0.4-1.9-0.4-4-0.7-5.9c-0.3-0.1,3.9-20.1,11.2-7.5
		c2.8,4.9,3.8,5.4,8.2,1.6c6.9-5.9,14.2-11.3,21.4-16.8c1.2-0.9,2.7-1.8,4-1.8c2,0,4,0.7,6,1.1c-0.5,2.1-0.3,5.3-1.6,6.2
		C465.8,511.5,466.5,515.1,468.2,519.2z M480.3,738.3c1.4,1.1,2.6,2.4,4.8,4.5c-2.6,0.6-3.8,1.3-5.1,1.2c-8.6-0.3-17.3-0.6-25.9-1.1
		c-1.7-0.1-4.2-0.7-4.9-1.9c-1.4-2.5-2.6-5.6-2.5-8.4c0-1.1,3.6-2.9,5.7-3C462.7,729.1,472.1,732,480.3,738.3z M426.7,748.1
		c-6.4-7.2-6-16.6-8.1-25.1c-1.4-5.8,2-10.4,6.5-15.8C429.2,721.5,430,734.7,426.7,748.1z M431.6,784.1c-12.8,1.3-25.5,1.8-38.3-0.7
		c-6-1.2-12.2-1.6-18.3-2c-3.5-0.2-5-1.4-5.2-5.1c-0.2-2.6,1.5-7.2-2.7-7.3c-2.1-0.1-4.3,3.7-6.4,5.7c0.3,0.5,0.6,0.9,1,1.4
		c-3.8,0.4-7.6,0.9-11.3,1c-8.6,0.4-14.4-4.4-16-13c-0.1-0.3-0.1-0.7-0.1-1c-1.8-13.3-0.2-14.9,12.7-13.2c4.9,0.6,9.6,0.7,13.3-3.5
		c4.7-5.5,4-9.7-2.5-12.6c5.2-5.1,8.1-5.1,21.9,0.6c3.8-3.9,7.6-8.2,14.2-4.7c-3.3,4.2-6.9,8.2-9.7,12.6c-1.3,2-1.2,4.9-1.7,7.4
		c2.6-0.2,5.6,0.3,7.9-0.7c6.6-3,11.3-8,13.8-15c0.7-2.1,2.9-3.7,4.4-5.5c1.9,1.6,5.1,2.9,5.6,4.9c1.8,7.4,2.7,15,3.8,22.5
		c0.3,1.8,0,3.6,0,5.9c4.3,0.2,8.1,0.3,11.9,0.5c5.9,0.3,6.9,1.7,5.7,8.4c-5.8-1-11.6-2-17.4-3c-2,6.8,1.4,12.1,8,12.5
		c3.6,0.2,7.2,0,10.8,0c0.1,0.5,0.3,0.9,0.4,1.4C435.5,782.6,433.6,783.9,431.6,784.1z M542.7,769.8c-0.8,9.3-3.8,12.5-13,14.4
		c-14,2.8-28,3-42.1,0.4c-10.1-1.9-20.4-2.8-30.6-4.2c-11-1.5-11.5-2-11.1-13.2c0-1,0.2-2,0.4-4c13.5,0,26.7,0,39.9-0.1
		c0.8,0,1.7-1.4,3.6-3.2c-7.9-1-14.7-1.8-21.5-2.6c-6.6-0.7-13.2-1.4-19.9-2c-7-0.7-11.5-4.9-14.4-10.9c-0.9-1.8-0.4-4.3-0.6-7.7
		c1.8,1.4,2.9,1.8,3.2,2.5c2.7,6.2,8,7.8,14.2,8.3c27,2.2,54,4.7,81,7.1c2,0.2,4.3,0,5.8,1c2,1.2,4.2,3.2,4.8,5.3
		C543.4,763.6,543,766.8,542.7,769.8z M546.3,438.3c-0.5,1.1-1,2.3-1.9,3.7c-8,12.3-19.6,19.8-33.5,22.7
		c-14.4,3.1-26.2,10.3-37.5,19c-7.8,6-15.3,12.3-23,18.5c-1.5,1.2-3.1,2.1-4.6,3.2c-0.3-0.3-0.6-0.6-0.9-1c0.7-1.2,1.3-2.5,2.2-3.4
		c7.5-7.6,14.5-15.8,22.8-22.3c6.9-5.5,15.3-9.3,23.2-13.3c6.9-3.5,12.8-7.8,15.4-15.5c1.7-5.1,1.1-6.3-4.2-6.7
		c-28.7-2.7-57.3-6.4-86.2-4c-1.8,0.1-3.7,0.1-5.5-0.1c-1.1-0.1-4.4,1.3-5-1.5c-0.8-3.6,4.5-5.1,6.8-5.8
		c22.5-7.1,45.1-12.9,69.1-8.6c5.7,1,11.6,1.2,17.4,1.3c2.8,0,5.6-1.2,9.8-2.2c-2.7-3.2-4.1-5.6-6.2-7.4
		c-4.9-4.2-10.2-8.1-15.2-12.1c-15-11.9-23.7-28.4-34.3-44.9c4.3-0.5,16.1,7.5,17.8,10.2c12.5,19,26.3,27.1,35.7,35.5
		c1.1,1,28.3,17.6,35.3,24C547.3,430.5,546,436.4,546.3,438.3z M511.6,362.3c-4.6-4-8.5-8.4-9.5-14.7c-0.5-3.1-2.1-5.2-5.5-5.4
		c-3.7-0.2-5.6-2.4-6.5-5.8c-1.2-4.3-2-8.8-3.7-12.9c-1-2.4-3-5-5.3-6c-8.7-3.8-9.7-5.1-7.8-14.2c0.7-3.3,2.3-6.5,4-11
		c-5.6,0.7-10.5,1.3-16.1,2.1c0.2-10.6,7-18,10.1-28.3c-5.6,0.5-10.4,1.1-15.2,1.4c-2,0.1-4.1-0.1-6.1-0.1c0.4-2.2,0.1-4.9,1.3-6.5
		c7.5-10.2,14.7-20.6,23.2-29.9c5.6-6.2,9.5-12.3,10.2-20.9c2.2-28.1,12.5-53.3,28.5-76.3c4-5.8,8.5-11.4,13.4-16.6
		c0.1,7.1-8.7,10.2-7.4,18.5c1.8-0.8,3.2-1.4,4.5-2.2c0.8-0.5,1.5-1.3,2.1-2.1c14.9-19.6,36-30.1,58-39.2c3.3-1.4,5.9-0.8,8.7,1.5
		c6.4,5.3,12.8,10.6,19.5,15.5c3.6,2.7,4.5,2.2,8.2-1.6c-11.5-6.5-21.4-14.2-23.6-29.6c3.2,1.4,6,2.2,8.3,3.8
		c11,7.4,21.2,15.6,27.7,27.6c1.2,2.1,3.9,3.4,5.9,5c0.6-0.4,1.1-0.8,1.7-1.3c-0.7-2.2-1.1-4.7-2.3-6.6c-3.2-5-6.5-10.1-10.2-14.7
		c-5.4-6.9-9.1-14.5-9.3-23.2c-0.2-7.1,0.2-14.3,1-21.4c0.4-3.5,2.4-6.7,3.6-10.1c0.6-0.1,1.1-0.2,1.7-0.2c1.3,2.3,3,4.5,3.8,7
		c7,21.2,18,40.1,32.9,56.6c5.2,5.7,11.2,11.2,17.7,15.2C717.7,139.3,737,174.2,740,219c1.1,16.2,0.4,32.2-2.8,48.2
		c-1.6,8.1-0.6,15.8,4.4,22.9c5.4,7.7,5.3,15.9,0.6,24c-1.8,3.2-4.1,6.1-5.8,9.3c-1.9,3.6-4,7.4-4.8,11.3c-1.1,5.3-3.2,9.7-7.1,13.4
		c-0.9,0.8-1.8,1.6-2.4,2.5c-17.6,23.4-42.4,35.1-69.8,42.3c-11.9,3.1-23.8,6.4-35.9,8.2c-20.5,3.1-40.1-1.5-58.7-10
		C541.1,383.5,525.4,374.4,511.6,362.3z M569.5,440.8c-5.3,5.5-15.3,2.6-17.1-1.3c-1.6-3.5,2.4-12.8,5.4-14.5
		c4.3-2.4,12-2.7,16.1,1.8C577.5,430.8,573.1,437,569.5,440.8z M581.8,432.9c6.3-6.9,14.1-12.8,22-17.8c4.5-2.8,10.6-3.8,16.1-3.9
		c12.3-0.2,24.4,0.8,36.4-3.7c6.4-2.4,23.3-3.9,30.5-4c1.7,0-5.7,9.8-7.1,10.6c-3,1.8-6.3,3.1-9.6,4.1c-10.9,3.4-22,6.5-32.9,10.1
		c-3.5,1.1-6.7,3.2-10.1,4.9c0,0.6,0,1.3,0,1.9c2.3,0.8,4.6,2.4,6.9,2.2c11.4-0.6,22.8-1.7,34.2-2.6c8.7-0.7,17.4-1.1,26-2.4
		c4.9-0.8,9.7-3.1,14.4-4.8c2.8-1,5.4-2.1,8.2-3.2c2.4,9.1-1,15.3-9.2,17.1c-19.2,4.2-38.5,7.4-58.3,7c-9.5-0.2-16.6,7.2-16.6,16.9
		c0,2.6,1.6,5.3,2.5,7.9c0.5,1.4,1.1,2.9,1.6,4.3c-1.7,0.3-3.7,1.2-5.1,0.7c-6.3-2.4-12.8-4.8-18.6-8.1c-10-5.6-19.4-12.1-29.3-17.8
		C575.2,447.2,574.7,440.7,581.8,432.9z M607.5,523.5c-1.3-8.5,32.7-7.2,32.5-8.8c-0.6-5.5-2.4-6.2-10.9-9c-5.7-1.9-11.4-3.6-17-5.7
		c-2.1-0.8-4.3-2.1-5.5-3.8c-2.7-3.9-0.9-7.5,3.9-7.5c3.9,0,8.2,0.2,11.8,1.6c8.1,3.2,16.4,2.5,24.7,1.8c6.4-0.5,7.4-3.3,4.6-8.9
		c-2.7-5.2-12.7-10.5-2.3-23.5c1,0.6,16.7,17.6,26.5,28.8c2.3,2.6,3,6.9,8.5,5.6c0-2.5,0-5,0-7.5c0-3.4,1.9-5.9,4.9-5.9
		c2.1,0,5.2,1.7,6.1,3.5c5.1,9.8,10.9,19.6,14.2,30.1c3,9.8,3.5,20.6,4.4,31c0.4,4.4-3,7-8.7,6.6c-10.8-0.7-44.4-1.2-47.4-1.6
		c-11.6-1.8-12.3-9.8-15.5-18.6C641.2,528.5,608.1,527.6,607.5,523.5z M748.1,749.4c2.8,0.8,4.2,2.5,3.8,5.5
		c-0.5,3.8-0.7,7.6-1.2,11.4c-0.7,5-3.6,8.4-8.2,10.5c-25,11.4-51.1,17.3-78.6,14.3c-6.2-0.7-12.1-3.5-18.2-5.3
		c0.2-1,0.4-1.9,0.6-2.9c17.4,4.9,35,4.5,52.7,3c-0.5-6-1.7-6.9-6.8-6c-14.5,2.5-28.9,2.2-42.7-3.5c-2.4-1-5.2-2.3-6.4-4.3
		c-1.2-2-1.6-5.4-0.8-7.7c0.6-1.7,3.6-3.6,5.6-3.7c5.5-0.3,11,0.3,16.5,0.5c2.9,0.1,5.8,0,8.8,0c0.2-0.5,0.3-1.1,0.5-1.6
		c-6.1-2.6-12.2-5.2-18.4-7.8c0-0.6-0.1-1.2-0.1-1.8c7.8-1.6,15.6-3.8,23.5-4.8c17.4-2.2,34.8-3.7,52.2-0.6
		C736.7,745.6,742.4,747.8,748.1,749.4z"/>
	<path class="st0" d="M288.8,434.9c-5.8-2.3-7.5-5.4-7.1-11.6c0.3-4.5,0.4-9,0.4-13.5c0-7.2-1.4-9-7.5-10.2
		c-8.7-1.7-13.5,0.1-15.9,6.3c-0.9,2.4-1.6,4.8-2.5,7.7c-2.8-2-5.3-3.4-7.4-5.2c-16.4-14.1-32.9-28.1-49.2-42.4
		c-33.8-29.6-51.6-67.6-55-111.8c-2-26.2-1.1-52.6-1.3-78.9c0-3.8,0.7-7.6,1.4-11.4c6.3-35,24.4-61.8,55.1-79.9
		c2.5-1.5,4.6-3.6,6.9-5.4c-0.4-0.7-0.7-1.4-1.1-2.1c-3,0.9-6.4,1.1-9.1,2.6c-19.5,11.5-35.3,26.8-45.6,47.1
		c-9.4,18.6-11.9,39.1-13.9,59.5c-3,31.1-0.3,61.8,5.9,92.4c6.3,31.6,18.8,59.8,41.6,83.2c11.1,11.4,21.3,23.8,32.1,35.7
		c4,4.4,4.7,8.9,2.1,14.2c-6,12.1-11.7,24.3-17.9,36.2c-1.6,3.1-4.5,5.6-7.2,7.9c-4.9,4.4-10.4,8.2-15,12.8
		c-3.2,3.2-5.9,6.4-10.7,7.7c-3,0.8-6.3,3.1-7.8,5.7c-6.2,11-12.5,22-12.1,35.4c0.1,4.5-0.5,9-0.8,15c-4.2-4.9-7.3-8.6-10.4-12.3
		c-0.7,0.4-1.3,0.8-2,1.2c0.5,2.3,0.7,4.7,1.6,6.8c7,16.7,18.6,29.4,33.5,39.4c2.8,1.9,6.4,3.3,9.7,3.6c17.5,1.5,33.7-3.2,48.3-12.6
		c5.9-3.8,9.2-9.9,10.4-17c1.3-7.9,2.7-15.7,3.8-23.6c0.7-5,2.6-8.8,7.4-11c3.6-1.7,4.8-4.6,3-8.3c-2.1-4.3-4.2-8.7-6.9-12.6
		c-3-4.2-4.2-8.3-2.1-13c4.2-9.8,8.4-19.6,12.9-29.2c0.7-1.5,3.1-3.7,4-3.4c1.7,0.6,3.7,2.5,4.3,4.2c1,3.1,1.2,6.5,1.3,9.9
		c0.4,30.4-3.5,60.4-7.3,90.5c-2.8,22.1-10.3,42.6-19.2,62.7c-1.5,3.4-4.3,6.3-6,9.6c-1.6,3-3.6,6.3-3.5,9.5
		c0,6.4,1.1,12.9,2.2,19.3c0.8,4.7,2.5,9.1,8.4,9.8c7.3,0.8,14.1-2.1,16.7-7.4c2.9-5.9,3.5-12.1,2.3-18.5c-0.5-2.3-0.3-5.1-0.8-7.4
		c1-1.1,2.4-3.2,4.4-7c0.8-2.3,2-4.6,2.3-7c1.8-12.9,2.9-25.8,5.1-38.6c1.6-9.1,5.7-17.9,6.7-27c2.1-19.2,3.1-38.5,4-57.8
		c0.6-12.8,0.1-25.6,0.1-38.4c3.2-0.5,5.1-0.5,6.8-1.1c3-1,8.2-2,8.4-3.5C296.8,437.1,292.2,436.3,288.8,434.9z M231.8,403.2
		c1,0.3,2.2,0.3,2.9,0.9c2.5,2,4.8,4,7.1,6.3c9.4,9.4,7.7,13.9-5.8,23.3c-1.3-10.4,2.9-21.1-5.5-29.7
		C230.9,403.6,231.4,403.4,231.8,403.2z M253.4,436.8c-4.9,11.8-10,23.6-15.1,35.3c-3.2,7.4-2.6,12.2,3.1,18.2
		c8,8.3,8.4,13-5.3,16.8c-4.6,1.3-9.8,0.5-14.7-0.1c-1.7-0.2-3.2-2.5-4.8-3.8c1.5-1.6,2.8-3.6,4.6-4.6c3.1-1.7,6.5-2.7,10.8-4.5
		c-1.8-1.6-2.2-2.2-2.7-2.4c-5.4-2.3-20.5,5.5-21.3,11.4c-0.2,1.6,1.4,4.4,2.8,5c5,2.1,10.3,3.5,15.4,5.3c1.9,0.7,5.1,1.8,5.1,2.9
		c0.1,2-1.2,4.5-2.8,5.9c-2.1,2-4.9,3.9-7.6,4.5c-13.7,3.1-27.5,6.4-41.4,8.3c-10.2,1.4-15.7-7.3-12.1-17c2.6-6.9,4.7-14.1,6.4-21.3
		c0.5-1.9-1-4.2-2-7.7c-4.3,7.9-3.3,16.6-10.3,22.1c-3.9-4.9-4.3-10.4-3.1-16c1.6-7.7,5.9-13.4,13.7-15.8c4.4-1.4,7.6-4,9.2-8.4
		c0.3-0.9,0.9-1.8,1.6-2.6c2.7-3.3,5.7-6.8,10.3-5.7c4.8,1.2,4.1,6.1,4.3,9.7c0.3,4.8-0.3,9.6-1,14.4c-0.3,1.9-2,3.6-3.1,5.3
		c-1.7-1.2-3.4-2.2-5-3.6c-1.8-1.5-3.4-3.2-5.6-4.4c0.4,9.6,5.2,16.7,12.5,23.2c1.1-1.9,2.1-3.2,2.8-4.6c1.9-3.9,4.4-6.8,9.1-7.7
		c1.9-0.4,3.4-2.5,5.2-3.9c-0.3-0.6-0.7-1.1-1-1.7c-1.9,0.5-3.9,1-5.8,1.5c-7.4-16.9,4.4-67.5,17.9-74.4c2.7,15.1-1.6,29.7-3.1,46.1
		c3-2.1,5.2-3.1,6.6-4.7c6-7.3,11.7-15,17.8-22.2c2.8-3.3,6.2-6,9.4-9c0.5,0.3,1,0.6,1.6,1C255.1,430.7,254.6,433.9,253.4,436.8z
		 M255.7,638.9c-0.9,3.3-2.3,6.6-4.1,9.5c-2.7,4.1-8.5,3.8-10.6-0.6c-3.9-8.2-5.4-16.9-4.7-26.4c3.5,0.6,6.6,1,9.6,1.7
		C254.4,625.1,257.8,630.5,255.7,638.9z M273.5,519.2c-2.6,22.6-8,44.8-12.3,67.2c-0.8,4-5.7,24.8-11.2,28.2
		c-0.3-3,4.2-21.4,4.5-23.6c3.9-25.8,8.8-51.5,11.9-77.4c3.2-26.1,4.1-52.4,1.2-78.7c-0.7-6.5-0.2-13.3,0.6-19.9
		c0.4-3.7,0.4-6.4-5.1-8.3c2.9-1.5,4.8-3.3,6.3-3c1.7,0.3,3.6,2.2,4.3,3.9c1,2.4,1.3,5.1,1.4,7.8C276.6,450,277.5,484.7,273.5,519.2
		z"/>
	<path class="st0" d="M594,386.6c18.6-7.6,37.4-14.9,55.5-23.5c7.4-3.5,13.7-9.8,19.6-15.7c5.8-5.8,7.7-15.3,17.8-17
		c-5.3-6-16.6-7.6-22.1-3.7c6.5,8,7,8.8-0.7,16.7c-6.7,6.8-14.1,13.6-22.5,17.8c-15.6,7.7-32.1,13.4-48.2,20
		c-5.8,2.4-10.7,1.3-15.1-3c-4.6-4.6-9.3-9.1-13.9-13.6c-13.3-13.1-25.7-27-33.9-44.1c-1.5-3.1-2.4-6.4-3.7-10.1
		c3.2-0.5,5.6-0.9,8.5-1.4c-5.6-8-18.7-10.2-26.6-4.8c1.1,0.7,1.9,1.5,2.9,1.8c5.7,1.4,7.9,5.8,10.1,10.7c3.2,7.1,6.2,14.6,11,20.5
		c12.5,15.5,25.8,30.4,39.2,45.2C577.9,388.9,585.9,389.8,594,386.6z"/>
	<path class="st0" d="M582.8,371.5c4.8-6.8,6.4-16,4.5-26.6C578.5,350.7,576.3,364.9,582.8,371.5z"/>
	<path class="st0" d="M280.9,225.6c-5.5,0.4-11,1.4-16.5,1.2c-14.4-0.6-26.2-6.2-35.9-14.6c-8.7-7.5-17.1-15.4-25.9-22.9
		c-2.5-2.1-5.4-4.1-8.6-5.5c-8-3.7-15.3-2.4-21.7,3.4c-7.6,6.9-10.9,15.3-12.5,24.1c-2.5,13.8-0.3,27,5.5,39.8
		c5.5,12.2,16.7,19.4,31.7,22.8c4.3,0.9,18.1,0.9,32.7-1.6c-0.7,0.5-20.8,5.3-21.7,6C245.1,279.3,284.9,250.3,280.9,225.6z"/>
	<path class="st0" d="M353.6,181.4c-6.5,8.8-11.4,18.4-17.2,27.6c-1.3,2-3,4-4.7,5.8c-3.6,4-8.2,6.7-14.2,7.3c-3.3,0.3-6.5,1-10,1.6
		c0.5,5.5,4,9.6,7.9,13.3c14.2,13.7,32.9,21,54,24.8c0.3,0.1,0.7-0.1,1.4-0.2c-1.2-0.6-9.4-3-10.6-3.6c8.3,1,17.3-0.2,21.9-1.8
		c12.4-4.6,20.4-12.8,24-23.4c7.1-21,2-39.9-14.8-55.7C377.6,164.2,363.6,168,353.6,181.4z"/>
	<path class="st0" d="M283.8,251.8c-2.8,2.7-5,6-7,9.2c-1.5,2.6-2.4,5.4-3.1,8.2c-1.2,5.2,0.8,7.1,7.1,7.2c1.2,0,2.3,0,3.8,0
		c-0.3,1-0.5,2-0.8,2.9c0.3,0.2,0.6,0.3,0.9,0.4c1.3-1.8,3.2-3.5,3.6-5.3c1.6-6.1,2.6-12.3,3.7-18.5c0.1-0.7-0.1-1.5-0.4-2.2
		C290.7,249.7,287.1,248.7,283.8,251.8z"/>
	<path class="st0" d="M241.8,200c6.5,3.5,13.5,6,21.5,6.2c5.4,0.1,10.6-1,14.7-4.8c-3.6,0.3-7.3,0.8-10.9,0.8
		c-13.1,0.1-23.2-5.3-32.2-12.2c-7-5.3-13.5-11-20.2-16.6c-1.4-1.1-2.9-2.1-4.3-3.2c-0.3,0.2-0.6,0.4-0.8,0.6
		C218.4,182,228.1,192.5,241.8,200z"/>
	<path class="st0" d="M314.6,260.9c-2.7-2.6-5.7-5.1-8.8-7.3c-1.1-0.8-3.4-1.1-4.8-0.8c-0.8,0.3-1.6,2.5-1.3,3.6
		c2.3,8.2,5.3,16.2,13.2,21.9c0.4,0.3,0.5,0.8,0.7,1.2c0.4-0.4,0.8-0.7,1.2-1.1c-1.2-1.6-2.4-3.2-3.7-5c0.9-0.8,1.7-1.5,2.5-2.2
		C318.7,267.4,318.9,265,314.6,260.9z"/>
	<path class="st0" d="M329,188.9c5.1-8.1,8.8-16.8,13.1-25.2c-0.4-0.2-0.9-0.4-1.4-0.5c-0.6,1-1.2,2-1.9,2.9
		c-5.1,7.4-10.2,14.9-15.4,22.3c-2.6,3.6-6.5,5.9-11.5,6.6c-0.6,0.1-1.1,0.4-2.5,1C317.6,197.7,324.9,195.5,329,188.9z"/>
</g>
</svg>
